<?xml version="1.0" standalone="no"?><!DOCTYPE svg PUBLIC "-//W3C//DTD SVG 1.1//EN" "http://www.w3.org/Graphics/SVG/1.1/DTD/svg11.dtd"><svg
        class="icon" viewBox="0 0 1024 1024" version="1.1" xmlns="http://www.w3.org/2000/svg" xmlns:xlink="http://www.w3.org/1999/xlink" width="200" height="200"><defs><style type="text/css">@font-face { font-family: feedback-iconfont; src: url("//at.alicdn.com/t/font_1031158_u69w8yhxdu.woff2?t=1630033759944") format("woff2"), url("//at.alicdn.com/t/font_1031158_u69w8yhxdu.woff?t=1630033759944") format("woff"), url("//at.alicdn.com/t/font_1031158_u69w8yhxdu.ttf?t=1630033759944") format("truetype"); }
</style></defs><path d="M483.984906 226.05283q17.388679 0 30.430189 12.558491t13.041509 30.913208-13.041509 30.913208-30.430189 12.558491q-18.354717 0-30.913208-12.558491t-12.558491-30.913208 12.558491-30.913208 30.913208-12.558491zM149.735849 512q0-50.233962 6.762264-97.086792t20.286792-90.324528l725.49434 403.803774q-24.150943 65.690566-60.860377 119.788679t-83.079245 93.222642-100.950943 60.860377-113.509434 21.735849q-81.14717 0-153.116981-40.090566t-125.584906-109.645283-84.528302-162.777358-30.913208-199.486792zM904.211321 302.369811q16.422642 48.301887 25.6 100.950943t9.177358 108.679245q0 86.943396-22.218868 167.124528l-304.301887-170.022642zM567.064151 483.984906l-372.890566-207.698113q24.150943-61.826415 60.860377-112.543396t81.630189-86.943396 97.569811-56.513208 109.645283-20.286792q55.064151 0 105.298113 18.354717t94.188679 51.683019 79.698113 80.181132 61.826415 103.849057l-319.758491 227.018868zM554.50566 418.29434l205.766038-138.143396q-15.456604-45.403774-43.471698-81.14717-11.592453-15.456604-28.015094-29.94717t-37.192453-26.083019-46.369811-18.354717-56.513208-6.762264q-28.981132 0-53.132075 7.245283t-44.437736 18.837736-37.192453 26.566038-30.430189 30.430189q-31.879245 36.709434-52.166038 82.113208zM604.739623 226.05283q18.354717 0 30.913208 12.558491t12.558491 30.913208-12.558491 30.913208-30.913208 12.558491-30.913208-12.558491-12.558491-30.913208 12.558491-30.913208 30.913208-12.558491z"></path></svg>