<?xml version="1.0" standalone="no"?><!DOCTYPE svg PUBLIC "-//W3C//DTD SVG 1.1//EN" "http://www.w3.org/Graphics/SVG/1.1/DTD/svg11.dtd"><svg
        class="icon" viewBox="0 0 1024 1024" version="1.1" xmlns="http://www.w3.org/2000/svg" xmlns:xlink="http://www.w3.org/1999/xlink" width="200" height="200"><defs><style type="text/css">@font-face { font-family: feedback-iconfont; src: url("//at.alicdn.com/t/font_1031158_u69w8yhxdu.woff2?t=1630033759944") format("woff2"), url("//at.alicdn.com/t/font_1031158_u69w8yhxdu.woff?t=1630033759944") format("woff"), url("//at.alicdn.com/t/font_1031158_u69w8yhxdu.ttf?t=1630033759944") format("truetype"); }
</style></defs><path d="M554.666667 640v-42.666667h85.333333v-85.333333h-42.666667l68.266667-68.266667L601.6 384 512 473.6 422.4 384l-59.733333 59.733333 68.266666 68.266667H384v85.333333h85.333333v42.666667H384v85.333333h85.333333v42.666667h85.333334v-42.666667h85.333333v-85.333333h-85.333333zM256 256c68.266667 29.866667 153.6 42.666667 256 42.666667s187.733333-12.8 256-42.666667v640H256V256z m0-42.666667V128h512v85.333333c-68.266667 29.866667-153.6 42.666667-256 42.666667s-187.733333-12.8-256-42.666667z" fill="#444444"></path></svg>