<?xml version="1.0" standalone="no"?><!DOCTYPE svg PUBLIC "-//W3C//DTD SVG 1.1//EN" "http://www.w3.org/Graphics/SVG/1.1/DTD/svg11.dtd"><svg
        class="icon" viewBox="0 0 1029 1024" version="1.1" xmlns="http://www.w3.org/2000/svg" xmlns:xlink="http://www.w3.org/1999/xlink" width="200.9765625" height="200"><defs><style type="text/css">@font-face { font-family: feedback-iconfont; src: url("//at.alicdn.com/t/font_1031158_u69w8yhxdu.woff2?t=1630033759944") format("woff2"), url("//at.alicdn.com/t/font_1031158_u69w8yhxdu.woff?t=1630033759944") format("woff"), url("//at.alicdn.com/t/font_1031158_u69w8yhxdu.ttf?t=1630033759944") format("truetype"); }
</style></defs><path d="M952.624535 872.684015q3.806691 137.992565-137.992565 134.185874l-88.505576 0 0-58.052045 61.858736 0q71.375465 0 71.375465-66.6171l0-512.951673-694.72119 0 0 654.750929-88.505576 0 0-711.851301 222.69145 0q-16.178439-27.598513-28.550186-61.3829t-20.936803-76.609665l93.263941 0q14.275093 81.843866 44.728625 137.992565l257.903346 0q32.356877-59.95539 44.728625-137.992565l93.263941 0q-17.130112 83.747212-48.535316 137.992565l217.933086 0 0 560.535316zM574.810409 79.94052l453.947955 0 0 58.052045-1024 0 0-58.052045 462.513011 0 0-79.94052 107.539033 0 0 79.94052zM467.271375 405.412639q-65.665428 160.832714-279.791822 217.933086l0-53.29368q132.282528-57.100372 191.286245-164.639405l88.505576 0zM721.36803 752.773234q4.758364 133.234201-129.427509 129.427509l-279.791822 0 0-285.501859 409.219331 0 0 156.074349zM574.810409 824.148699q71.375465 4.758364 66.6171-62.810409l0-111.345725-249.33829 0 0 174.156134 182.72119 0zM837.472119 623.345725q-208.416357-52.342007-280.743494-217.933086l88.505576 0q59.003717 107.539033 192.237918 164.639405l0 53.29368z"></path></svg>