<?xml version="1.0" standalone="no"?><!DOCTYPE svg PUBLIC "-//W3C//DTD SVG 1.1//EN" "http://www.w3.org/Graphics/SVG/1.1/DTD/svg11.dtd"><svg
        class="icon" viewBox="0 0 1024 1024" version="1.1" xmlns="http://www.w3.org/2000/svg" xmlns:xlink="http://www.w3.org/1999/xlink" width="200" height="200"><defs><style type="text/css">@font-face { font-family: feedback-iconfont; src: url("//at.alicdn.com/t/font_1031158_u69w8yhxdu.woff2?t=1630033759944") format("woff2"), url("//at.alicdn.com/t/font_1031158_u69w8yhxdu.woff?t=1630033759944") format("woff"), url("//at.alicdn.com/t/font_1031158_u69w8yhxdu.ttf?t=1630033759944") format("truetype"); }
</style></defs><path d="M487.0144 343.16288c67.584 0 122.32704-18.37056 122.32704-41.08288 0-22.67136-54.74304-41.04192-122.30656-41.04192-67.56352 0-122.32704 18.37056-122.32704 41.04192 0 22.71232 54.76352 41.08288 122.32704 41.08288z m0-158.84288c155.89376 0 282.25536 52.736 282.25536 117.76V803.84c0 65.04448-126.3616 117.78048-282.23488 117.78048C331.14112 921.6 204.8 868.864 204.8 803.81952V302.08C204.8 237.056 331.1616 184.32 487.0144 184.32z m432.29184 175.7184c16.384 0 27.40224 16.83456 20.86912 31.86688l-70.10304 161.11616a86.44608 86.44608 0 0 0 0 69.03808l70.10304 161.11616a22.75328 22.75328 0 0 1-20.86912 31.86688h-120.48384V360.0384h120.48384z"></path></svg>