<?xml version="1.0" standalone="no"?><!DOCTYPE svg PUBLIC "-//W3C//DTD SVG 1.1//EN" "http://www.w3.org/Graphics/SVG/1.1/DTD/svg11.dtd"><svg
        class="icon" viewBox="0 0 1024 1024" version="1.1" xmlns="http://www.w3.org/2000/svg" xmlns:xlink="http://www.w3.org/1999/xlink" width="200" height="200"><defs><style type="text/css">@font-face { font-family: feedback-iconfont; src: url("//at.alicdn.com/t/font_1031158_u69w8yhxdu.woff2?t=1630033759944") format("woff2"), url("//at.alicdn.com/t/font_1031158_u69w8yhxdu.woff?t=1630033759944") format("woff"), url("//at.alicdn.com/t/font_1031158_u69w8yhxdu.ttf?t=1630033759944") format("truetype"); }
</style></defs><path d="M718.257231 551.384615A549.454769 549.454769 0 0 1 551.384615 887.138462V551.384615h166.872616z m3.347692-78.76923H551.384615v-179.396923a727.217231 727.217231 0 0 0 126.385231-21.011693A548.883692 548.883692 0 0 1 721.585231 472.615385z m75.874462 78.76923h145.979077a438.744615 438.744615 0 0 0 0-78.76923h-143.064616a627.869538 627.869538 0 0 0-47.261538-224.374154 724.657231 724.657231 0 0 0 74.397538-33.122462 435.593846 435.593846 0 0 0-64.512-56.260923c-14.828308 6.715077-29.873231 12.878769-45.134769 18.451692a39.384615 39.384615 0 0 0-69.868308 21.149539 648.605538 648.605538 0 0 1-96.630154 15.734154V80.541538a438.744615 438.744615 0 0 0-78.76923 0v135.699693a648.763077 648.763077 0 0 1-161.10277-25.796923 39.384615 39.384615 0 1 0-22.173538 75.579077A727.650462 727.650462 0 0 0 472.615385 295.049846V472.615385H80.541538a438.744615 438.744615 0 0 0 0 78.76923H472.615385v392.073847a438.744615 438.744615 0 0 0 145.32923-11.264A628.027077 628.027077 0 0 0 797.479385 551.384615zM512 1024C229.218462 1024 0 794.781538 0 512S229.218462 0 512 0s512 229.218462 512 512-229.218462 512-512 512z" fill="#333333"></path></svg>