<?xml version="1.0" standalone="no"?><!DOCTYPE svg PUBLIC "-//W3C//DTD SVG 1.1//EN" "http://www.w3.org/Graphics/SVG/1.1/DTD/svg11.dtd"><svg
        class="icon" viewBox="0 0 1024 1024" version="1.1" xmlns="http://www.w3.org/2000/svg" xmlns:xlink="http://www.w3.org/1999/xlink" width="200" height="200"><defs><style type="text/css">@font-face { font-family: feedback-iconfont; src: url("//at.alicdn.com/t/font_1031158_u69w8yhxdu.woff2?t=1630033759944") format("woff2"), url("//at.alicdn.com/t/font_1031158_u69w8yhxdu.woff?t=1630033759944") format("woff"), url("//at.alicdn.com/t/font_1031158_u69w8yhxdu.ttf?t=1630033759944") format("truetype"); }
</style></defs><path d="M901.36576 903.22944H813.056c-9.0112 0-16.384-9.66656-16.384-18.75968l-0.08192 2.29376c0.49152-78.11072-27.27936-233.43104-162.28352-432.27136l-0.4096-0.49152a8.4992 8.4992 0 0 1-1.55648-4.83328c0-3.60448 5.57056-6.63552 8.68352-7.7824l-3.35872-0.08192c80.36352-31.31392 160.31744 12.20608 193.00352 35.328l0.08192-0.08192a7.70048 7.70048 0 0 0 12.12416-8.02816l-0.16384-0.8192c-26.46016-104.8576-111.98464-136.3968-144.67072-144.67072v-0.24576a8.27392 8.27392 0 0 1-4.5056-13.68064c29.9008-36.06528 83.1488-37.70368 114.76992-36.31104v-0.08192a7.7824 7.7824 0 0 0 7.70048-7.7824 7.84384 7.84384 0 0 0-2.8672-6.08256c-95.19104-75.40736-191.52896-20.48-225.36192-0.57344l-0.98304 0.8192c3.35872-4.17792-1.72032 0.16384-3.19488 0.16384a8.192 8.192 0 0 1-8.192-8.27392h-0.24576c-3.11296-63.50848 6.22592-96.70656 17.44896-116.6336a7.72096 7.72096 0 0 0-9.66656-10.89536l0.08192 0.16384c-59.14624 22.05696-98.22208 80.97792-111.32928 102.54336v-1.57696c-1.39264 2.4576-4.096 5.67296-7.04512 5.67296a7.9872 7.9872 0 0 1-5.24288-1.96608l-0.16384-1.31072c-79.4624-50.176-151.22432-38.6048-187.92448-21.97504l-0.32768 0.08192a7.53664 7.53664 0 0 0-4.58752 7.86432 7.7824 7.7824 0 0 0 6.79936 7.04512l0.4096-0.16384c32.03072 5.16096 82.65728 23.94112 105.75872 91.648h2.12992a8.25344 8.25344 0 0 1-5.24288 11.14112l-0.73728 0.16384c-30.47424 10.56768-137.6256 63.01696-85.11488 223.3344 0.8192 3.44064 3.85024 6.06208 7.53664 6.06208 3.60448 0 6.63552-2.4576 7.45472-5.81632 15.64672-37.376 53.57568-112.18944 113.29536-111.53408l-5.40672 0.08192c4.5056 0 8.192 3.6864 8.192 8.27392l-0.08192 0.90112c-3.52256 36.63872-5.65248 180.87936 85.11488 223.08864l-0.65536 0.98304c0.98304 0.4096 2.048 0.73728 3.2768 0.73728a7.70048 7.70048 0 0 0 7.3728-9.66656l-1.72032-8.02816c-9.74848-47.94368-22.9376-161.62816 51.44576-177.27488l0.49152 2.78528c0.4096-0.08192 0.65536-2.78528 1.06496-2.78528 3.60448 0 6.63552 2.70336 7.70048 5.98016l0.32768 0.4096c25.55904 60.88704 83.31264 194.9696 41.45152 407.01952h-0.08192c-1.31072 7.70048-8.02816 15.72864-16.05632 15.72864h-207.2576c9.66656-1.96608 16.95744-9.25696 16.95744-19.49696h3.2768c17.53088 0 33.91488-13.45536 33.91488-31.15008v-191.7952c0-17.69472-22.85568-25.55904-38.42048-25.55904h-12.6976l0.16384-34.9184c0-9.0112-7.70048-16.384-17.28512-16.384h-85.1968c-9.33888 0-12.61568 6.4512-12.61568 14.41792L281.55904 634.88l-17.03936-0.08192c-18.75968 0-33.91488 14.11072-33.91488 31.55968v186.4704c0 17.36704 11.96032 31.47776 30.72 31.47776h0.16384c0 10.07616 11.71456 16.87552 21.38112 18.75968h-160.1536c-11.22304 0-20.31616 7.04512-20.31616 18.432A20.41856 20.41856 0 0 0 122.71616 942.08h778.56768A20.48 20.48 0 0 0 921.6 921.4976c0.08192-11.30496-9.0112-18.26816-20.23424-18.26816zM371.0976 694.39488c0-4.58752 5.7344-8.43776 12.86144-8.43776 7.04512 0 12.86144 3.6864 12.86144 8.43776v124.25216c0 4.58752-5.7344 8.35584-12.86144 8.35584s-12.86144-3.6864-12.86144-8.35584v-124.25216z m-63.97952-85.23776h64.06144v25.57952h-64.06144v-25.6z m-25.55904 85.23776c0-4.58752 5.7344-8.43776 12.86144-8.43776 7.04512 0 12.86144 3.6864 12.86144 8.43776v124.25216c0 4.58752-5.7344 8.35584-12.86144 8.35584s-12.86144-3.6864-12.86144-8.35584v-124.25216z m38.42048 183.58272h38.33856c0 10.3424 11.71456 23.20384 21.38112 25.088h-81.92c9.58464-1.88416 22.20032-14.7456 22.20032-25.088z"></path></svg>